<svg viewBox="0 0 400 400" xmlns="http://www.w3.org/2000/svg">
<defs>
  <linearGradient id="gGold" x1="0" y1="0" x2="1" y2="0">
    <stop offset="0%"   stop-color="#5A3A00"/>
    <stop offset="22%"  stop-color="#C8900A"/>
    <stop offset="45%"  stop-color="#F5D060"/>
    <stop offset="55%"  stop-color="#FFE580"/>
    <stop offset="78%"  stop-color="#C8900A"/>
    <stop offset="100%" stop-color="#5A3A00"/>
  </linearGradient>
  <linearGradient id="gGoldV" x1="0" y1="0" x2="0" y2="1">
    <stop offset="0%"   stop-color="#F5D060"/>
    <stop offset="50%"  stop-color="#C8900A"/>
    <stop offset="100%" stop-color="#7A5500"/>
  </linearGradient>
  <clipPath id="aClip">
    <path d="M 44,400 L 44,232 C 44,102 130,38 200,38 C 270,38 356,102 356,232 L 356,400 Z"/>
  </clipPath>
  <filter id="fGlow" x="-40%" y="-40%" width="180%" height="180%">
    <feGaussianBlur in="SourceGraphic" stdDeviation="7" result="b"/>
    <feMerge><feMergeNode in="b"/><feMergeNode in="SourceGraphic"/></feMerge>
  </filter>
  <filter id="fSoft" x="-30%" y="-30%" width="160%" height="160%">
    <feGaussianBlur in="SourceGraphic" stdDeviation="4" result="b"/>
    <feMerge><feMergeNode in="b"/><feMergeNode in="SourceGraphic"/></feMerge>
  </filter>
  <filter id="fBlur5"><feGaussianBlur stdDeviation="5"/></filter>
  <filter id="fBlur10"><feGaussianBlur stdDeviation="10"/></filter>
  <radialGradient id="gBg" cx="50%" cy="42%" r="68%">
    <stop offset="0%"   stop-color="#003322"/>
    <stop offset="50%"  stop-color="#001A10"/>
    <stop offset="100%" stop-color="#000A06"/>
  </radialGradient>
  <radialGradient id="gCenter" cx="50%" cy="48%" r="55%">
    <stop offset="0%"   stop-color="#10A07A" stop-opacity="0.6"/>
    <stop offset="100%" stop-color="#10A07A" stop-opacity="0"/>
  </radialGradient>
  <radialGradient id="gBulb" cx="50%" cy="38%" r="60%">
    <stop offset="0%"   stop-color="#F5D060" stop-opacity="0.95"/>
    <stop offset="40%"  stop-color="#E8B430" stop-opacity="0.7"/>
    <stop offset="100%" stop-color="#E8B430" stop-opacity="0"/>
  </radialGradient>
  <linearGradient id="gQmark" x1="0" y1="0" x2="0" y2="1">
    <stop offset="0%"   stop-color="#10D4A0"/>
    <stop offset="50%"  stop-color="#E8B430"/>
    <stop offset="100%" stop-color="#C8900A"/>
  </linearGradient>
  <pattern id="zel" x="0" y="0" width="22" height="22" patternUnits="userSpaceOnUse">
    <polygon points="11,0 22,11 11,22 0,11" fill="none" stroke="#0A4A30" stroke-width="0.6" opacity="0.4"/>
    <polygon points="11,4 18,11 11,18 4,11" fill="none" stroke="#0A4A30" stroke-width="0.4" opacity="0.22"/>
  </pattern>
</defs>

<rect width="400" height="400" rx="24" fill="#000C06"/>

<g opacity="0.75">
  <rect x="8" y="8" width="34" height="34" rx="7" fill="none" stroke="#C8900A" stroke-width="1.8"/>
  <rect x="13" y="13" width="24" height="24" rx="4" fill="none" stroke="#F5D060" stroke-width="1" opacity="0.7"/>
  <polygon points="20,8 27,15 20,22 13,15" fill="#C8900A" opacity="0.55"/>
  <circle cx="20" cy="15" r="2.5" fill="#F5D060" opacity="0.8"/>
  <rect x="358" y="8" width="34" height="34" rx="7" fill="none" stroke="#C8900A" stroke-width="1.8"/>
  <rect x="363" y="13" width="24" height="24" rx="4" fill="none" stroke="#F5D060" stroke-width="1" opacity="0.7"/>
  <polygon points="380,8 387,15 380,22 373,15" fill="#C8900A" opacity="0.55"/>
  <circle cx="380" cy="15" r="2.5" fill="#F5D060" opacity="0.8"/>
  <rect x="8" y="358" width="34" height="34" rx="7" fill="none" stroke="#C8900A" stroke-width="1.8"/>
  <rect x="13" y="363" width="24" height="24" rx="4" fill="none" stroke="#F5D060" stroke-width="1" opacity="0.7"/>
  <polygon points="20,358 27,365 20,372 13,365" fill="#C8900A" opacity="0.55"/>
  <circle cx="20" cy="365" r="2.5" fill="#F5D060" opacity="0.8"/>
  <rect x="358" y="358" width="34" height="34" rx="7" fill="none" stroke="#C8900A" stroke-width="1.8"/>
  <rect x="363" y="363" width="24" height="24" rx="4" fill="none" stroke="#F5D060" stroke-width="1" opacity="0.7"/>
  <polygon points="380,358 387,365 380,372 373,365" fill="#C8900A" opacity="0.55"/>
  <circle cx="380" cy="365" r="2.5" fill="#F5D060" opacity="0.8"/>
</g>

<g clip-path="url(#aClip)">
  <rect width="400" height="400" fill="url(#gBg)"/>
  <rect width="400" height="400" fill="url(#zel)"/>

  <path d="M 110,400 L 110,292 Q 110,245 200,238 Q 290,245 290,292 L 290,400" fill="none" stroke="#0F5A3A" stroke-width="3" opacity="0.55"/>

  <ellipse cx="200" cy="215" rx="125" ry="135" fill="url(#gCenter)" opacity="0.85" filter="url(#fBlur10)"/>

  <!-- Teal lantern left -->
  <ellipse cx="80" cy="148" rx="26" ry="36" fill="#006633" opacity="0.4" filter="url(#fBlur10)"/>
  <g transform="translate(80,142)">
    <rect x="-9" y="-34" width="18" height="4" rx="2" fill="#C8900A"/>
    <line x1="0" y1="-30" x2="0" y2="-14" stroke="#C8900A" stroke-width="1.8"/>
    <ellipse cx="0" cy="0" rx="12" ry="20" fill="#0A4A2A"/>
    <ellipse cx="0" cy="0" rx="12" ry="20" fill="none" stroke="#C8900A" stroke-width="2"/>
    <line x1="-12" y1="-7" x2="12" y2="-7" stroke="#C8900A" stroke-width="1" opacity="0.7"/>
    <line x1="-12" y1="0" x2="12" y2="0" stroke="#C8900A" stroke-width="1" opacity="0.7"/>
    <line x1="-12" y1="7" x2="12" y2="7" stroke="#C8900A" stroke-width="1" opacity="0.7"/>
    <ellipse cx="0" cy="-2" rx="5.5" ry="10" fill="#20D490" opacity="0.7"/>
    <ellipse cx="0" cy="-3" rx="2.5" ry="5" fill="#80FFD0" opacity="0.65"/>
  </g>

  <!-- Gold lantern right -->
  <ellipse cx="318" cy="130" rx="22" ry="30" fill="#886600" opacity="0.35" filter="url(#fBlur10)"/>
  <g transform="translate(320,125)">
    <rect x="-8" y="-30" width="16" height="3.5" rx="1.5" fill="#C8900A"/>
    <line x1="0" y1="-26" x2="0" y2="-12" stroke="#C8900A" stroke-width="1.8"/>
    <ellipse cx="0" cy="0" rx="11" ry="18" fill="#4A3000"/>
    <ellipse cx="0" cy="0" rx="11" ry="18" fill="none" stroke="#C8900A" stroke-width="2"/>
    <line x1="-11" y1="-6" x2="11" y2="-6" stroke="#C8900A" stroke-width="1" opacity="0.7"/>
    <line x1="-11" y1="0" x2="11" y2="0" stroke="#C8900A" stroke-width="1" opacity="0.7"/>
    <line x1="-11" y1="6" x2="11" y2="6" stroke="#C8900A" stroke-width="1" opacity="0.7"/>
    <ellipse cx="0" cy="-2" rx="5" ry="9" fill="#F5D060" opacity="0.7"/>
    <ellipse cx="0" cy="-3" rx="2.5" ry="4.5" fill="#FFF0A0" opacity="0.65"/>
  </g>

  <!-- LIGHTBULB (top center) -->
  <g transform="translate(200,136)" filter="url(#fGlow)">
    <ellipse cx="0" cy="-12" rx="50" ry="55" fill="url(#gBulb)" opacity="0.7"/>
    <path d="M -26,-55 Q -40,-30 -40,-10 Q -40,16 -16,30 L 16,30 Q 40,16 40,-10 Q 40,-30 26,-55 Q 13,-74 0,-76 Q -13,-74 -26,-55 Z" fill="#F5D060" opacity="0.94"/>
    <path d="M -26,-55 Q -40,-30 -40,-10 Q -40,16 -16,30 L 16,30 Q 40,16 40,-10 Q 40,-30 26,-55 Q 13,-74 0,-76 Q -13,-74 -26,-55 Z" fill="none" stroke="#E8B430" stroke-width="2.5"/>
    <path d="M -8,10 L -8,-8 Q -8,-15 0,-15 Q 8,-15 8,-8 L 8,10" fill="none" stroke="#B8870E" stroke-width="2" opacity="0.8"/>
    <path d="M -16,-52 Q -8,-68 0,-70" stroke="white" stroke-width="2.5" fill="none" opacity="0.5" stroke-linecap="round"/>
    <rect x="-15" y="30" width="30" height="8" rx="2" fill="#B8870E" opacity="0.9"/>
    <rect x="-12" y="38" width="24" height="7" rx="2" fill="#8B6914" opacity="0.9"/>
    <rect x="-9" y="45" width="18" height="6" rx="2" fill="#6B4F0A" opacity="0.9"/>
    <ellipse cx="0" cy="-18" rx="18" ry="22" fill="#FFF3C0" opacity="0.35"/>
  </g>

  <!-- GIANT QUESTION MARK (center) -->
  <g transform="translate(200,268)" filter="url(#fSoft)">
    <path d="M -32,-80 Q -32,-120 0,-120 Q 32,-120 32,-80 Q 32,-50 10,-30 L 10,10" fill="none" stroke="#006644" stroke-width="24" stroke-linecap="round"/>
    <path d="M -32,-80 Q -32,-120 0,-120 Q 32,-120 32,-80 Q 32,-50 10,-30 L 10,10" fill="none" stroke="url(#gQmark)" stroke-width="18" stroke-linecap="round"/>
    <!-- Dot -->
    <circle cx="10" cy="30" r="13" fill="#006644"/>
    <circle cx="10" cy="30" r="10" fill="#E8B430"/>
    <circle cx="10" cy="30" r="5" fill="#F5D060"/>
  </g>

  <!-- Books (bottom sides) -->
  <g transform="translate(102,320)">
    <rect x="-12" y="-48" width="24" height="55" rx="3" fill="#0A3A22" opacity="0.85"/>
    <rect x="-12" y="-48" width="24" height="55" rx="3" fill="none" stroke="#C8900A" stroke-width="1" opacity="0.5"/>
    <rect x="-3" y="-42" width="6" height="43" rx="1" fill="#0F5A3A" opacity="0.5"/>
    <line x1="-12" y1="-34" x2="12" y2="-34" stroke="#C8900A" stroke-width="0.7" opacity="0.45"/>
  </g>
  <g transform="translate(126,315)">
    <rect x="-10" y="-40" width="20" height="46" rx="3" fill="#0D4A2C" opacity="0.85"/>
    <rect x="-10" y="-40" width="20" height="46" rx="3" fill="none" stroke="#C8900A" stroke-width="1" opacity="0.4"/>
  </g>
  <g transform="translate(296,318)">
    <rect x="-12" y="-45" width="24" height="52" rx="3" fill="#0A3A22" opacity="0.85"/>
    <rect x="-12" y="-45" width="24" height="52" rx="3" fill="none" stroke="#C8900A" stroke-width="1" opacity="0.5"/>
    <line x1="-12" y1="-30" x2="12" y2="-30" stroke="#C8900A" stroke-width="0.7" opacity="0.45"/>
  </g>
  <g transform="translate(274,320)">
    <rect x="-10" y="-38" width="20" height="44" rx="3" fill="#0D4A2C" opacity="0.85"/>
    <rect x="-10" y="-38" width="20" height="44" rx="3" fill="none" stroke="#C8900A" stroke-width="1" opacity="0.4"/>
  </g>

  <!-- Hourglass right -->
  <g transform="translate(308,224)" filter="url(#fSoft)">
    <polygon points="-16,-30 16,-30 8,-6 16,6 -16,6" fill="#0A3A22" opacity="0.85"/>
    <polygon points="-16,32 16,32 8,6 16,-6 -16,-6" fill="#0A3A22" opacity="0.85"/>
    <rect x="-18" y="-33" width="36" height="5" rx="2.5" fill="#C8900A" opacity="0.8"/>
    <rect x="-18" y="28" width="36" height="5" rx="2.5" fill="#C8900A" opacity="0.8"/>
    <ellipse cx="0" cy="18" rx="9" ry="10" fill="#10A07A" opacity="0.55"/>
  </g>

  <ellipse cx="200" cy="372" rx="155" ry="20" fill="#001508" opacity="0.9"/>
</g>

<!-- ARCH FRAME -->
<path d="M 28,400 L 28,226 C 28,86 122,22 200,22 C 278,22 372,86 372,226 L 372,400" fill="none" stroke="#10A07A" stroke-width="18" opacity="0.15" filter="url(#fBlur10)"/>
<path d="M 28,400 L 28,226 C 28,86 122,22 200,22 C 278,22 372,86 372,226 L 372,400" fill="none" stroke="url(#gGold)" stroke-width="6.5" stroke-linecap="round"/>
<path d="M 44,400 L 44,232 C 44,102 130,38 200,38 C 270,38 356,102 356,232 L 356,400" fill="none" stroke="#C8900A" stroke-width="2" stroke-dasharray="7 10" opacity="0.5"/>
<path d="M 56,400 L 56,237 C 56,112 136,52 200,52 C 264,52 344,112 344,237 L 344,400" fill="none" stroke="#C8900A" stroke-width="1" opacity="0.28"/>
<path d="M 66,400 L 66,241 C 66,120 140,62 200,62 C 260,62 334,120 334,241 L 334,400" fill="none" stroke="#F5D060" stroke-width="0.6" opacity="0.18"/>

<polygon points="186,18 200,2 214,18 210,38 190,38" fill="#8A6000"/>
<polygon points="188,20 200,6 212,20 208,36 192,36" fill="url(#gGoldV)"/>
<circle cx="200" cy="26" r="7" fill="#10A07A" filter="url(#fSoft)"/>
<circle cx="200" cy="26" r="5" fill="#20D490"/>
<circle cx="200" cy="26" r="2.5" fill="white" opacity="0.65"/>

<circle cx="28" cy="226" r="9" fill="#8A6000" opacity="0.7"/><circle cx="28" cy="226" r="6" fill="#F5D060" opacity="0.85"/><circle cx="28" cy="226" r="2.5" fill="white" opacity="0.55"/>
<circle cx="372" cy="226" r="9" fill="#8A6000" opacity="0.7"/><circle cx="372" cy="226" r="6" fill="#F5D060" opacity="0.85"/><circle cx="372" cy="226" r="2.5" fill="white" opacity="0.55"/>

<polygon points="28,248 37,239 46,248 37,257" fill="#C8900A" opacity="0.65"/>
<polygon points="28,270 37,261 46,270 37,279" fill="#F5D060" opacity="0.45"/>
<polygon points="28,292 37,283 46,292 37,301" fill="#C8900A" opacity="0.55"/>
<polygon points="28,314 37,305 46,314 37,323" fill="#F5D060" opacity="0.35"/>
<polygon points="28,336 37,327 46,336 37,345" fill="#C8900A" opacity="0.45"/>
<polygon points="28,358 37,349 46,358 37,367" fill="#F5D060" opacity="0.28"/>
<polygon points="354,248 363,239 372,248 363,257" fill="#C8900A" opacity="0.65"/>
<polygon points="354,270 363,261 372,270 363,279" fill="#F5D060" opacity="0.45"/>
<polygon points="354,292 363,283 372,292 363,301" fill="#C8900A" opacity="0.55"/>
<polygon points="354,314 363,305 372,314 363,323" fill="#F5D060" opacity="0.35"/>
<polygon points="354,336 363,327 372,336 363,345" fill="#C8900A" opacity="0.45"/>
<polygon points="354,358 363,349 372,358 363,367" fill="#F5D060" opacity="0.28"/>

<circle cx="146" cy="48" r="3.5" fill="#C8900A" opacity="0.55"/>
<circle cx="254" cy="48" r="3.5" fill="#C8900A" opacity="0.55"/>
<circle cx="108" cy="80" r="3" fill="#C8900A" opacity="0.45"/>
<circle cx="292" cy="80" r="3" fill="#C8900A" opacity="0.45"/>
<circle cx="76" cy="122" r="2.5" fill="#C8900A" opacity="0.38"/>
<circle cx="324" cy="122" r="2.5" fill="#C8900A" opacity="0.38"/>
<circle cx="54" cy="172" r="2" fill="#C8900A" opacity="0.3"/>
<circle cx="346" cy="172" r="2" fill="#C8900A" opacity="0.3"/>

<rect x="17" y="386" width="22" height="11" rx="3.5" fill="#C8900A" opacity="0.65"/>
<rect x="361" y="386" width="22" height="11" rx="3.5" fill="#C8900A" opacity="0.65"/>
<line x1="17" y1="398" x2="383" y2="398" stroke="#C8900A" stroke-width="2.2" opacity="0.38"/>
<circle cx="29" cy="393" r="3.5" fill="#C8900A" opacity="0.5"/>
<circle cx="371" cy="393" r="3.5" fill="#C8900A" opacity="0.5"/>
<polygon points="196,398 200,392 204,398" fill="#C8900A" opacity="0.6"/>
<polygon points="185,398 189,393 193,398" fill="#C8900A" opacity="0.35"/>
<polygon points="207,398 211,393 215,398" fill="#C8900A" opacity="0.35"/>
</svg>
